%FSLAX45Y45*%
G04 Gerber Fmt 4.5, Leading zero omitted, Abs format (unit mm)*
G04 Created by KiCad (PCBNEW 4.0.1-stable) date Sun 10 Jan 2016 07:27:59 PM CET*
%MOMM*%
G01*
G04 APERTURE LIST*
%ADD10C,0.127000*%
%ADD11C,0.150000*%
%ADD12C,0.200000*%
%ADD13C,0.300000*%
G04 APERTURE END LIST*
D10*
D11*
X9161000Y-4191000D02*
X9161000Y-12192000D01*
X9161000Y-12192000D02*
X18051000Y-12192000D01*
X9288000Y-4191000D02*
X9161000Y-4191000D01*
X19448000Y-4191000D02*
X9288000Y-4191000D01*
X19448000Y-12192000D02*
X19448000Y-4191000D01*
X18051000Y-12192000D02*
X19448000Y-12192000D01*
D12*
X15855000Y-10775000D02*
X15895000Y-10815000D01*
X15895000Y-10775000D02*
X15855000Y-10815000D01*
X16236000Y-10013000D02*
X16276000Y-10053000D01*
X16276000Y-10013000D02*
X16236000Y-10053000D01*
X11722100Y-6477000D02*
G75*
G03X11722100Y-6477000I-38100J0D01*
G01*
X11722100Y-6985000D02*
G75*
G03X11722100Y-6985000I-38100J0D01*
G01*
X11722100Y-7493000D02*
G75*
G03X11722100Y-7493000I-38100J0D01*
G01*
X11722100Y-8001000D02*
G75*
G03X11722100Y-8001000I-38100J0D01*
G01*
X11722100Y-8509000D02*
G75*
G03X11722100Y-8509000I-38100J0D01*
G01*
X11722100Y-9017000D02*
G75*
G03X11722100Y-9017000I-38100J0D01*
G01*
X11722100Y-9525000D02*
G75*
G03X11722100Y-9525000I-38100J0D01*
G01*
X11722100Y-10033000D02*
G75*
G03X11722100Y-10033000I-38100J0D01*
G01*
X12103100Y-5461000D02*
G75*
G03X12103100Y-5461000I-38100J0D01*
G01*
X12103100Y-10795000D02*
G75*
G03X12103100Y-10795000I-38100J0D01*
G01*
X12357100Y-5461000D02*
G75*
G03X12357100Y-5461000I-38100J0D01*
G01*
X12611100Y-5461000D02*
G75*
G03X12611100Y-5461000I-38100J0D01*
G01*
X12611100Y-10795000D02*
G75*
G03X12611100Y-10795000I-38100J0D01*
G01*
X12865100Y-5461000D02*
G75*
G03X12865100Y-5461000I-38100J0D01*
G01*
X12865100Y-10795000D02*
G75*
G03X12865100Y-10795000I-38100J0D01*
G01*
X13119100Y-5461000D02*
G75*
G03X13119100Y-5461000I-38100J0D01*
G01*
X13119100Y-10795000D02*
G75*
G03X13119100Y-10795000I-38100J0D01*
G01*
X13373100Y-5461000D02*
G75*
G03X13373100Y-5461000I-38100J0D01*
G01*
X13373100Y-10795000D02*
G75*
G03X13373100Y-10795000I-38100J0D01*
G01*
X13627100Y-5461000D02*
G75*
G03X13627100Y-5461000I-38100J0D01*
G01*
X13627100Y-10795000D02*
G75*
G03X13627100Y-10795000I-38100J0D01*
G01*
X13881100Y-5461000D02*
G75*
G03X13881100Y-5461000I-38100J0D01*
G01*
X13881100Y-10795000D02*
G75*
G03X13881100Y-10795000I-38100J0D01*
G01*
X14135100Y-5461000D02*
G75*
G03X14135100Y-5461000I-38100J0D01*
G01*
X14135100Y-10795000D02*
G75*
G03X14135100Y-10795000I-38100J0D01*
G01*
X14389100Y-5461000D02*
G75*
G03X14389100Y-5461000I-38100J0D01*
G01*
X14389100Y-10795000D02*
G75*
G03X14389100Y-10795000I-38100J0D01*
G01*
X14643100Y-5461000D02*
G75*
G03X14643100Y-5461000I-38100J0D01*
G01*
X14643100Y-10795000D02*
G75*
G03X14643100Y-10795000I-38100J0D01*
G01*
X14897100Y-5461000D02*
G75*
G03X14897100Y-5461000I-38100J0D01*
G01*
X14897100Y-10795000D02*
G75*
G03X14897100Y-10795000I-38100J0D01*
G01*
X15151100Y-5461000D02*
G75*
G03X15151100Y-5461000I-38100J0D01*
G01*
X15151100Y-10795000D02*
G75*
G03X15151100Y-10795000I-38100J0D01*
G01*
X15405100Y-5461000D02*
G75*
G03X15405100Y-5461000I-38100J0D01*
G01*
X15405100Y-10795000D02*
G75*
G03X15405100Y-10795000I-38100J0D01*
G01*
X15659100Y-5461000D02*
G75*
G03X15659100Y-5461000I-38100J0D01*
G01*
X15659100Y-10795000D02*
G75*
G03X15659100Y-10795000I-38100J0D01*
G01*
X15913100Y-5461000D02*
G75*
G03X15913100Y-5461000I-38100J0D01*
G01*
X15913100Y-10795000D02*
G75*
G03X15913100Y-10795000I-38100J0D01*
G01*
X16294100Y-6223000D02*
G75*
G03X16294100Y-6223000I-38100J0D01*
G01*
X16294100Y-6477000D02*
G75*
G03X16294100Y-6477000I-38100J0D01*
G01*
X16294100Y-6731000D02*
G75*
G03X16294100Y-6731000I-38100J0D01*
G01*
X16294100Y-6985000D02*
G75*
G03X16294100Y-6985000I-38100J0D01*
G01*
X16294100Y-7239000D02*
G75*
G03X16294100Y-7239000I-38100J0D01*
G01*
X16294100Y-7493000D02*
G75*
G03X16294100Y-7493000I-38100J0D01*
G01*
X16294100Y-7747000D02*
G75*
G03X16294100Y-7747000I-38100J0D01*
G01*
X16294100Y-8001000D02*
G75*
G03X16294100Y-8001000I-38100J0D01*
G01*
X16294100Y-8255000D02*
G75*
G03X16294100Y-8255000I-38100J0D01*
G01*
X16294100Y-8509000D02*
G75*
G03X16294100Y-8509000I-38100J0D01*
G01*
X16294100Y-8763000D02*
G75*
G03X16294100Y-8763000I-38100J0D01*
G01*
X16294100Y-9271000D02*
G75*
G03X16294100Y-9271000I-38100J0D01*
G01*
X16294100Y-9525000D02*
G75*
G03X16294100Y-9525000I-38100J0D01*
G01*
X16294100Y-9779000D02*
G75*
G03X16294100Y-9779000I-38100J0D01*
G01*
X16294100Y-10033000D02*
G75*
G03X16294100Y-10033000I-38100J0D01*
G01*
X17517600Y-10508500D02*
G75*
G03X17517600Y-10508500I-38100J0D01*
G01*
X17517600Y-11208500D02*
G75*
G03X17517600Y-11208500I-38100J0D01*
G01*
X17962100Y-8001000D02*
G75*
G03X17962100Y-8001000I-38100J0D01*
G01*
X18216100Y-10033000D02*
G75*
G03X18216100Y-10033000I-38100J0D01*
G01*
X9906000Y-6807200D02*
X9906000Y-6908800D01*
X9855200Y-6858000D02*
X9956800Y-6858000D01*
X9906000Y-7061200D02*
X9906000Y-7162800D01*
X9855200Y-7112000D02*
X9956800Y-7112000D01*
X9906000Y-7315200D02*
X9906000Y-7416800D01*
X9855200Y-7366000D02*
X9956800Y-7366000D01*
X9906000Y-7569200D02*
X9906000Y-7670800D01*
X9855200Y-7620000D02*
X9956800Y-7620000D01*
X9906000Y-7823200D02*
X9906000Y-7924800D01*
X9855200Y-7874000D02*
X9956800Y-7874000D01*
X9906000Y-8077200D02*
X9906000Y-8178800D01*
X9855200Y-8128000D02*
X9956800Y-8128000D01*
X9906000Y-8331200D02*
X9906000Y-8432800D01*
X9855200Y-8382000D02*
X9956800Y-8382000D01*
X9906000Y-8585200D02*
X9906000Y-8686800D01*
X9855200Y-8636000D02*
X9956800Y-8636000D01*
X9906000Y-8839200D02*
X9906000Y-8940800D01*
X9855200Y-8890000D02*
X9956800Y-8890000D01*
X9906000Y-9093200D02*
X9906000Y-9194800D01*
X9855200Y-9144000D02*
X9956800Y-9144000D01*
X16781000Y-10553700D02*
X16781000Y-10655300D01*
X16730200Y-10604500D02*
X16831800Y-10604500D01*
X17035000Y-10553700D02*
X17035000Y-10655300D01*
X16984200Y-10604500D02*
X17085800Y-10604500D01*
X17924000Y-5664200D02*
X17924000Y-5765800D01*
X17873200Y-5715000D02*
X17974800Y-5715000D01*
X17924000Y-5918200D02*
X17924000Y-6019800D01*
X17873200Y-5969000D02*
X17974800Y-5969000D01*
X17924000Y-6172200D02*
X17924000Y-6273800D01*
X17873200Y-6223000D02*
X17974800Y-6223000D01*
X17924000Y-6426200D02*
X17924000Y-6527800D01*
X17873200Y-6477000D02*
X17974800Y-6477000D01*
X17924000Y-6680200D02*
X17924000Y-6781800D01*
X17873200Y-6731000D02*
X17974800Y-6731000D01*
X17924000Y-6934200D02*
X17924000Y-7035800D01*
X17873200Y-6985000D02*
X17974800Y-6985000D01*
X17924000Y-7188200D02*
X17924000Y-7289800D01*
X17873200Y-7239000D02*
X17974800Y-7239000D01*
X17924000Y-8458200D02*
X17924000Y-8559800D01*
X17873200Y-8509000D02*
X17974800Y-8509000D01*
X17924000Y-8712200D02*
X17924000Y-8813800D01*
X17873200Y-8763000D02*
X17974800Y-8763000D01*
X17924000Y-8966200D02*
X17924000Y-9067800D01*
X17873200Y-9017000D02*
X17974800Y-9017000D01*
X17924000Y-9220200D02*
X17924000Y-9321800D01*
X17873200Y-9271000D02*
X17974800Y-9271000D01*
X17924000Y-9474200D02*
X17924000Y-9575800D01*
X17873200Y-9525000D02*
X17974800Y-9525000D01*
X17924000Y-9728200D02*
X17924000Y-9829800D01*
X17873200Y-9779000D02*
X17974800Y-9779000D01*
X17924000Y-9982200D02*
X17924000Y-10083800D01*
X17873200Y-10033000D02*
X17974800Y-10033000D01*
X17924000Y-10236200D02*
X17924000Y-10337800D01*
X17873200Y-10287000D02*
X17974800Y-10287000D01*
X17924000Y-10490200D02*
X17924000Y-10591800D01*
X17873200Y-10541000D02*
X17974800Y-10541000D01*
X18178000Y-5664200D02*
X18178000Y-5765800D01*
X18127200Y-5715000D02*
X18228800Y-5715000D01*
X18178000Y-5918200D02*
X18178000Y-6019800D01*
X18127200Y-5969000D02*
X18228800Y-5969000D01*
X18178000Y-6172200D02*
X18178000Y-6273800D01*
X18127200Y-6223000D02*
X18228800Y-6223000D01*
X18178000Y-6426200D02*
X18178000Y-6527800D01*
X18127200Y-6477000D02*
X18228800Y-6477000D01*
X18178000Y-6680200D02*
X18178000Y-6781800D01*
X18127200Y-6731000D02*
X18228800Y-6731000D01*
X18178000Y-6934200D02*
X18178000Y-7035800D01*
X18127200Y-6985000D02*
X18228800Y-6985000D01*
X18178000Y-7188200D02*
X18178000Y-7289800D01*
X18127200Y-7239000D02*
X18228800Y-7239000D01*
X18178000Y-7696200D02*
X18178000Y-7797800D01*
X18127200Y-7747000D02*
X18228800Y-7747000D01*
X18178000Y-7950200D02*
X18178000Y-8051800D01*
X18127200Y-8001000D02*
X18228800Y-8001000D01*
X18178000Y-8204200D02*
X18178000Y-8305800D01*
X18127200Y-8255000D02*
X18228800Y-8255000D01*
X18178000Y-8458200D02*
X18178000Y-8559800D01*
X18127200Y-8509000D02*
X18228800Y-8509000D01*
X18178000Y-8712200D02*
X18178000Y-8813800D01*
X18127200Y-8763000D02*
X18228800Y-8763000D01*
X18178000Y-8966200D02*
X18178000Y-9067800D01*
X18127200Y-9017000D02*
X18228800Y-9017000D01*
X18178000Y-9220200D02*
X18178000Y-9321800D01*
X18127200Y-9271000D02*
X18228800Y-9271000D01*
X18178000Y-9474200D02*
X18178000Y-9575800D01*
X18127200Y-9525000D02*
X18228800Y-9525000D01*
X18178000Y-9728200D02*
X18178000Y-9829800D01*
X18127200Y-9779000D02*
X18228800Y-9779000D01*
X18178000Y-10236200D02*
X18178000Y-10337800D01*
X18127200Y-10287000D02*
X18228800Y-10287000D01*
X18178000Y-10490200D02*
X18178000Y-10591800D01*
X18127200Y-10541000D02*
X18228800Y-10541000D01*
X18686000Y-11569700D02*
X18686000Y-11671300D01*
X18635200Y-11620500D02*
X18736800Y-11620500D01*
X18940000Y-11569700D02*
X18940000Y-11671300D01*
X18889200Y-11620500D02*
X18990800Y-11620500D01*
D13*
X9424929Y-12665214D02*
X9424929Y-12365214D01*
X9496357Y-12365214D01*
X9539214Y-12379500D01*
X9567786Y-12408071D01*
X9582071Y-12436643D01*
X9596357Y-12493786D01*
X9596357Y-12536643D01*
X9582071Y-12593786D01*
X9567786Y-12622357D01*
X9539214Y-12650929D01*
X9496357Y-12665214D01*
X9424929Y-12665214D01*
X9724929Y-12665214D02*
X9724929Y-12465214D01*
X9724929Y-12522357D02*
X9739214Y-12493786D01*
X9753500Y-12479500D01*
X9782071Y-12465214D01*
X9810643Y-12465214D01*
X9910643Y-12665214D02*
X9910643Y-12465214D01*
X9910643Y-12365214D02*
X9896357Y-12379500D01*
X9910643Y-12393786D01*
X9924929Y-12379500D01*
X9910643Y-12365214D01*
X9910643Y-12393786D01*
X10096357Y-12665214D02*
X10067786Y-12650929D01*
X10053500Y-12622357D01*
X10053500Y-12365214D01*
X10253500Y-12665214D02*
X10224929Y-12650929D01*
X10210643Y-12622357D01*
X10210643Y-12365214D01*
X10596357Y-12665214D02*
X10596357Y-12365214D01*
X10696357Y-12579500D01*
X10796357Y-12365214D01*
X10796357Y-12665214D01*
X11067786Y-12665214D02*
X11067786Y-12508071D01*
X11053500Y-12479500D01*
X11024929Y-12465214D01*
X10967786Y-12465214D01*
X10939214Y-12479500D01*
X11067786Y-12650929D02*
X11039214Y-12665214D01*
X10967786Y-12665214D01*
X10939214Y-12650929D01*
X10924929Y-12622357D01*
X10924929Y-12593786D01*
X10939214Y-12565214D01*
X10967786Y-12550929D01*
X11039214Y-12550929D01*
X11067786Y-12536643D01*
X11210643Y-12465214D02*
X11210643Y-12765214D01*
X11210643Y-12479500D02*
X11239214Y-12465214D01*
X11296357Y-12465214D01*
X11324928Y-12479500D01*
X11339214Y-12493786D01*
X11353500Y-12522357D01*
X11353500Y-12608071D01*
X11339214Y-12636643D01*
X11324928Y-12650929D01*
X11296357Y-12665214D01*
X11239214Y-12665214D01*
X11210643Y-12650929D01*
X11482071Y-12636643D02*
X11496357Y-12650929D01*
X11482071Y-12665214D01*
X11467786Y-12650929D01*
X11482071Y-12636643D01*
X11482071Y-12665214D01*
X11482071Y-12479500D02*
X11496357Y-12493786D01*
X11482071Y-12508071D01*
X11467786Y-12493786D01*
X11482071Y-12479500D01*
X11482071Y-12508071D01*
X9113500Y-13139500D02*
X9153500Y-13179500D01*
X9153500Y-13139500D02*
X9113500Y-13179500D01*
X9482071Y-12995214D02*
X9510643Y-12995214D01*
X9539214Y-13009500D01*
X9553500Y-13023786D01*
X9567786Y-13052357D01*
X9582071Y-13109500D01*
X9582071Y-13180929D01*
X9567786Y-13238071D01*
X9553500Y-13266643D01*
X9539214Y-13280929D01*
X9510643Y-13295214D01*
X9482071Y-13295214D01*
X9453500Y-13280929D01*
X9439214Y-13266643D01*
X9424929Y-13238071D01*
X9410643Y-13180929D01*
X9410643Y-13109500D01*
X9424929Y-13052357D01*
X9439214Y-13023786D01*
X9453500Y-13009500D01*
X9482071Y-12995214D01*
X9710643Y-13266643D02*
X9724929Y-13280929D01*
X9710643Y-13295214D01*
X9696357Y-13280929D01*
X9710643Y-13266643D01*
X9710643Y-13295214D01*
X9982071Y-13095214D02*
X9982071Y-13295214D01*
X9910643Y-12980929D02*
X9839214Y-13195214D01*
X10024928Y-13195214D01*
X10196357Y-12995214D02*
X10224929Y-12995214D01*
X10253500Y-13009500D01*
X10267786Y-13023786D01*
X10282071Y-13052357D01*
X10296357Y-13109500D01*
X10296357Y-13180929D01*
X10282071Y-13238071D01*
X10267786Y-13266643D01*
X10253500Y-13280929D01*
X10224929Y-13295214D01*
X10196357Y-13295214D01*
X10167786Y-13280929D01*
X10153500Y-13266643D01*
X10139214Y-13238071D01*
X10124929Y-13180929D01*
X10124929Y-13109500D01*
X10139214Y-13052357D01*
X10153500Y-13023786D01*
X10167786Y-13009500D01*
X10196357Y-12995214D01*
X10424929Y-13295214D02*
X10424929Y-13095214D01*
X10424929Y-13123786D02*
X10439214Y-13109500D01*
X10467786Y-13095214D01*
X10510643Y-13095214D01*
X10539214Y-13109500D01*
X10553500Y-13138071D01*
X10553500Y-13295214D01*
X10553500Y-13138071D02*
X10567786Y-13109500D01*
X10596357Y-13095214D01*
X10639214Y-13095214D01*
X10667786Y-13109500D01*
X10682071Y-13138071D01*
X10682071Y-13295214D01*
X10824929Y-13295214D02*
X10824929Y-13095214D01*
X10824929Y-13123786D02*
X10839214Y-13109500D01*
X10867786Y-13095214D01*
X10910643Y-13095214D01*
X10939214Y-13109500D01*
X10953500Y-13138071D01*
X10953500Y-13295214D01*
X10953500Y-13138071D02*
X10967786Y-13109500D01*
X10996357Y-13095214D01*
X11039214Y-13095214D01*
X11067786Y-13109500D01*
X11082071Y-13138071D01*
X11082071Y-13295214D01*
X11667786Y-12980929D02*
X11410643Y-13366643D01*
X12053500Y-12995214D02*
X12082071Y-12995214D01*
X12110643Y-13009500D01*
X12124928Y-13023786D01*
X12139214Y-13052357D01*
X12153500Y-13109500D01*
X12153500Y-13180929D01*
X12139214Y-13238071D01*
X12124928Y-13266643D01*
X12110643Y-13280929D01*
X12082071Y-13295214D01*
X12053500Y-13295214D01*
X12024928Y-13280929D01*
X12010643Y-13266643D01*
X11996357Y-13238071D01*
X11982071Y-13180929D01*
X11982071Y-13109500D01*
X11996357Y-13052357D01*
X12010643Y-13023786D01*
X12024928Y-13009500D01*
X12053500Y-12995214D01*
X12282071Y-13266643D02*
X12296357Y-13280929D01*
X12282071Y-13295214D01*
X12267786Y-13280929D01*
X12282071Y-13266643D01*
X12282071Y-13295214D01*
X12482071Y-12995214D02*
X12510643Y-12995214D01*
X12539214Y-13009500D01*
X12553500Y-13023786D01*
X12567785Y-13052357D01*
X12582071Y-13109500D01*
X12582071Y-13180929D01*
X12567785Y-13238071D01*
X12553500Y-13266643D01*
X12539214Y-13280929D01*
X12510643Y-13295214D01*
X12482071Y-13295214D01*
X12453500Y-13280929D01*
X12439214Y-13266643D01*
X12424928Y-13238071D01*
X12410643Y-13180929D01*
X12410643Y-13109500D01*
X12424928Y-13052357D01*
X12439214Y-13023786D01*
X12453500Y-13009500D01*
X12482071Y-12995214D01*
X12867785Y-13295214D02*
X12696357Y-13295214D01*
X12782071Y-13295214D02*
X12782071Y-12995214D01*
X12753500Y-13038071D01*
X12724928Y-13066643D01*
X12696357Y-13080929D01*
X13124928Y-12995214D02*
X13067785Y-12995214D01*
X13039214Y-13009500D01*
X13024928Y-13023786D01*
X12996357Y-13066643D01*
X12982071Y-13123786D01*
X12982071Y-13238071D01*
X12996357Y-13266643D01*
X13010643Y-13280929D01*
X13039214Y-13295214D01*
X13096357Y-13295214D01*
X13124928Y-13280929D01*
X13139214Y-13266643D01*
X13153500Y-13238071D01*
X13153500Y-13166643D01*
X13139214Y-13138071D01*
X13124928Y-13123786D01*
X13096357Y-13109500D01*
X13039214Y-13109500D01*
X13010643Y-13123786D01*
X12996357Y-13138071D01*
X12982071Y-13166643D01*
X13267786Y-12995214D02*
X13267786Y-13052357D01*
X13382071Y-12995214D02*
X13382071Y-13052357D01*
X13824928Y-13409500D02*
X13810643Y-13395214D01*
X13782071Y-13352357D01*
X13767785Y-13323786D01*
X13753500Y-13280929D01*
X13739214Y-13209500D01*
X13739214Y-13152357D01*
X13753500Y-13080929D01*
X13767785Y-13038071D01*
X13782071Y-13009500D01*
X13810643Y-12966643D01*
X13824928Y-12952357D01*
X13924928Y-13023786D02*
X13939214Y-13009500D01*
X13967785Y-12995214D01*
X14039214Y-12995214D01*
X14067785Y-13009500D01*
X14082071Y-13023786D01*
X14096357Y-13052357D01*
X14096357Y-13080929D01*
X14082071Y-13123786D01*
X13910643Y-13295214D01*
X14096357Y-13295214D01*
X14453500Y-13295214D02*
X14453500Y-12995214D01*
X14582071Y-13295214D02*
X14582071Y-13138071D01*
X14567785Y-13109500D01*
X14539214Y-13095214D01*
X14496357Y-13095214D01*
X14467785Y-13109500D01*
X14453500Y-13123786D01*
X14767785Y-13295214D02*
X14739214Y-13280929D01*
X14724928Y-13266643D01*
X14710643Y-13238071D01*
X14710643Y-13152357D01*
X14724928Y-13123786D01*
X14739214Y-13109500D01*
X14767785Y-13095214D01*
X14810643Y-13095214D01*
X14839214Y-13109500D01*
X14853500Y-13123786D01*
X14867785Y-13152357D01*
X14867785Y-13238071D01*
X14853500Y-13266643D01*
X14839214Y-13280929D01*
X14810643Y-13295214D01*
X14767785Y-13295214D01*
X15039214Y-13295214D02*
X15010643Y-13280929D01*
X14996357Y-13252357D01*
X14996357Y-12995214D01*
X15267786Y-13280929D02*
X15239214Y-13295214D01*
X15182071Y-13295214D01*
X15153500Y-13280929D01*
X15139214Y-13252357D01*
X15139214Y-13138071D01*
X15153500Y-13109500D01*
X15182071Y-13095214D01*
X15239214Y-13095214D01*
X15267786Y-13109500D01*
X15282071Y-13138071D01*
X15282071Y-13166643D01*
X15139214Y-13195214D01*
X15396357Y-13280929D02*
X15424928Y-13295214D01*
X15482071Y-13295214D01*
X15510643Y-13280929D01*
X15524928Y-13252357D01*
X15524928Y-13238071D01*
X15510643Y-13209500D01*
X15482071Y-13195214D01*
X15439214Y-13195214D01*
X15410643Y-13180929D01*
X15396357Y-13152357D01*
X15396357Y-13138071D01*
X15410643Y-13109500D01*
X15439214Y-13095214D01*
X15482071Y-13095214D01*
X15510643Y-13109500D01*
X15624928Y-13409500D02*
X15639214Y-13395214D01*
X15667786Y-13352357D01*
X15682071Y-13323786D01*
X15696357Y-13280929D01*
X15710643Y-13209500D01*
X15710643Y-13152357D01*
X15696357Y-13080929D01*
X15682071Y-13038071D01*
X15667786Y-13009500D01*
X15639214Y-12966643D01*
X15624928Y-12952357D01*
X9153500Y-13555500D02*
G75*
G03X9153500Y-13555500I-38100J0D01*
G01*
X9482071Y-13391214D02*
X9510643Y-13391214D01*
X9539214Y-13405500D01*
X9553500Y-13419786D01*
X9567786Y-13448357D01*
X9582071Y-13505500D01*
X9582071Y-13576929D01*
X9567786Y-13634071D01*
X9553500Y-13662643D01*
X9539214Y-13676929D01*
X9510643Y-13691214D01*
X9482071Y-13691214D01*
X9453500Y-13676929D01*
X9439214Y-13662643D01*
X9424929Y-13634071D01*
X9410643Y-13576929D01*
X9410643Y-13505500D01*
X9424929Y-13448357D01*
X9439214Y-13419786D01*
X9453500Y-13405500D01*
X9482071Y-13391214D01*
X9710643Y-13662643D02*
X9724929Y-13676929D01*
X9710643Y-13691214D01*
X9696357Y-13676929D01*
X9710643Y-13662643D01*
X9710643Y-13691214D01*
X9824928Y-13391214D02*
X10024928Y-13391214D01*
X9896357Y-13691214D01*
X10267786Y-13391214D02*
X10210643Y-13391214D01*
X10182071Y-13405500D01*
X10167786Y-13419786D01*
X10139214Y-13462643D01*
X10124929Y-13519786D01*
X10124929Y-13634071D01*
X10139214Y-13662643D01*
X10153500Y-13676929D01*
X10182071Y-13691214D01*
X10239214Y-13691214D01*
X10267786Y-13676929D01*
X10282071Y-13662643D01*
X10296357Y-13634071D01*
X10296357Y-13562643D01*
X10282071Y-13534071D01*
X10267786Y-13519786D01*
X10239214Y-13505500D01*
X10182071Y-13505500D01*
X10153500Y-13519786D01*
X10139214Y-13534071D01*
X10124929Y-13562643D01*
X10424929Y-13691214D02*
X10424929Y-13491214D01*
X10424929Y-13519786D02*
X10439214Y-13505500D01*
X10467786Y-13491214D01*
X10510643Y-13491214D01*
X10539214Y-13505500D01*
X10553500Y-13534071D01*
X10553500Y-13691214D01*
X10553500Y-13534071D02*
X10567786Y-13505500D01*
X10596357Y-13491214D01*
X10639214Y-13491214D01*
X10667786Y-13505500D01*
X10682071Y-13534071D01*
X10682071Y-13691214D01*
X10824929Y-13691214D02*
X10824929Y-13491214D01*
X10824929Y-13519786D02*
X10839214Y-13505500D01*
X10867786Y-13491214D01*
X10910643Y-13491214D01*
X10939214Y-13505500D01*
X10953500Y-13534071D01*
X10953500Y-13691214D01*
X10953500Y-13534071D02*
X10967786Y-13505500D01*
X10996357Y-13491214D01*
X11039214Y-13491214D01*
X11067786Y-13505500D01*
X11082071Y-13534071D01*
X11082071Y-13691214D01*
X11667786Y-13376929D02*
X11410643Y-13762643D01*
X12053500Y-13391214D02*
X12082071Y-13391214D01*
X12110643Y-13405500D01*
X12124928Y-13419786D01*
X12139214Y-13448357D01*
X12153500Y-13505500D01*
X12153500Y-13576929D01*
X12139214Y-13634071D01*
X12124928Y-13662643D01*
X12110643Y-13676929D01*
X12082071Y-13691214D01*
X12053500Y-13691214D01*
X12024928Y-13676929D01*
X12010643Y-13662643D01*
X11996357Y-13634071D01*
X11982071Y-13576929D01*
X11982071Y-13505500D01*
X11996357Y-13448357D01*
X12010643Y-13419786D01*
X12024928Y-13405500D01*
X12053500Y-13391214D01*
X12282071Y-13662643D02*
X12296357Y-13676929D01*
X12282071Y-13691214D01*
X12267786Y-13676929D01*
X12282071Y-13662643D01*
X12282071Y-13691214D01*
X12482071Y-13391214D02*
X12510643Y-13391214D01*
X12539214Y-13405500D01*
X12553500Y-13419786D01*
X12567785Y-13448357D01*
X12582071Y-13505500D01*
X12582071Y-13576929D01*
X12567785Y-13634071D01*
X12553500Y-13662643D01*
X12539214Y-13676929D01*
X12510643Y-13691214D01*
X12482071Y-13691214D01*
X12453500Y-13676929D01*
X12439214Y-13662643D01*
X12424928Y-13634071D01*
X12410643Y-13576929D01*
X12410643Y-13505500D01*
X12424928Y-13448357D01*
X12439214Y-13419786D01*
X12453500Y-13405500D01*
X12482071Y-13391214D01*
X12682071Y-13391214D02*
X12867785Y-13391214D01*
X12767785Y-13505500D01*
X12810643Y-13505500D01*
X12839214Y-13519786D01*
X12853500Y-13534071D01*
X12867785Y-13562643D01*
X12867785Y-13634071D01*
X12853500Y-13662643D01*
X12839214Y-13676929D01*
X12810643Y-13691214D01*
X12724928Y-13691214D01*
X12696357Y-13676929D01*
X12682071Y-13662643D01*
X13053500Y-13391214D02*
X13082071Y-13391214D01*
X13110643Y-13405500D01*
X13124928Y-13419786D01*
X13139214Y-13448357D01*
X13153500Y-13505500D01*
X13153500Y-13576929D01*
X13139214Y-13634071D01*
X13124928Y-13662643D01*
X13110643Y-13676929D01*
X13082071Y-13691214D01*
X13053500Y-13691214D01*
X13024928Y-13676929D01*
X13010643Y-13662643D01*
X12996357Y-13634071D01*
X12982071Y-13576929D01*
X12982071Y-13505500D01*
X12996357Y-13448357D01*
X13010643Y-13419786D01*
X13024928Y-13405500D01*
X13053500Y-13391214D01*
X13267786Y-13391214D02*
X13267786Y-13448357D01*
X13382071Y-13391214D02*
X13382071Y-13448357D01*
X13824928Y-13805500D02*
X13810643Y-13791214D01*
X13782071Y-13748357D01*
X13767785Y-13719786D01*
X13753500Y-13676929D01*
X13739214Y-13605500D01*
X13739214Y-13548357D01*
X13753500Y-13476929D01*
X13767785Y-13434071D01*
X13782071Y-13405500D01*
X13810643Y-13362643D01*
X13824928Y-13348357D01*
X14082071Y-13391214D02*
X13939214Y-13391214D01*
X13924928Y-13534071D01*
X13939214Y-13519786D01*
X13967785Y-13505500D01*
X14039214Y-13505500D01*
X14067785Y-13519786D01*
X14082071Y-13534071D01*
X14096357Y-13562643D01*
X14096357Y-13634071D01*
X14082071Y-13662643D01*
X14067785Y-13676929D01*
X14039214Y-13691214D01*
X13967785Y-13691214D01*
X13939214Y-13676929D01*
X13924928Y-13662643D01*
X14267785Y-13519786D02*
X14239214Y-13505500D01*
X14224928Y-13491214D01*
X14210643Y-13462643D01*
X14210643Y-13448357D01*
X14224928Y-13419786D01*
X14239214Y-13405500D01*
X14267785Y-13391214D01*
X14324928Y-13391214D01*
X14353500Y-13405500D01*
X14367785Y-13419786D01*
X14382071Y-13448357D01*
X14382071Y-13462643D01*
X14367785Y-13491214D01*
X14353500Y-13505500D01*
X14324928Y-13519786D01*
X14267785Y-13519786D01*
X14239214Y-13534071D01*
X14224928Y-13548357D01*
X14210643Y-13576929D01*
X14210643Y-13634071D01*
X14224928Y-13662643D01*
X14239214Y-13676929D01*
X14267785Y-13691214D01*
X14324928Y-13691214D01*
X14353500Y-13676929D01*
X14367785Y-13662643D01*
X14382071Y-13634071D01*
X14382071Y-13576929D01*
X14367785Y-13548357D01*
X14353500Y-13534071D01*
X14324928Y-13519786D01*
X14739214Y-13691214D02*
X14739214Y-13391214D01*
X14867785Y-13691214D02*
X14867785Y-13534071D01*
X14853500Y-13505500D01*
X14824928Y-13491214D01*
X14782071Y-13491214D01*
X14753500Y-13505500D01*
X14739214Y-13519786D01*
X15053500Y-13691214D02*
X15024928Y-13676929D01*
X15010643Y-13662643D01*
X14996357Y-13634071D01*
X14996357Y-13548357D01*
X15010643Y-13519786D01*
X15024928Y-13505500D01*
X15053500Y-13491214D01*
X15096357Y-13491214D01*
X15124928Y-13505500D01*
X15139214Y-13519786D01*
X15153500Y-13548357D01*
X15153500Y-13634071D01*
X15139214Y-13662643D01*
X15124928Y-13676929D01*
X15096357Y-13691214D01*
X15053500Y-13691214D01*
X15324928Y-13691214D02*
X15296357Y-13676929D01*
X15282071Y-13648357D01*
X15282071Y-13391214D01*
X15553500Y-13676929D02*
X15524928Y-13691214D01*
X15467786Y-13691214D01*
X15439214Y-13676929D01*
X15424928Y-13648357D01*
X15424928Y-13534071D01*
X15439214Y-13505500D01*
X15467786Y-13491214D01*
X15524928Y-13491214D01*
X15553500Y-13505500D01*
X15567786Y-13534071D01*
X15567786Y-13562643D01*
X15424928Y-13591214D01*
X15682071Y-13676929D02*
X15710643Y-13691214D01*
X15767786Y-13691214D01*
X15796357Y-13676929D01*
X15810643Y-13648357D01*
X15810643Y-13634071D01*
X15796357Y-13605500D01*
X15767786Y-13591214D01*
X15724928Y-13591214D01*
X15696357Y-13576929D01*
X15682071Y-13548357D01*
X15682071Y-13534071D01*
X15696357Y-13505500D01*
X15724928Y-13491214D01*
X15767786Y-13491214D01*
X15796357Y-13505500D01*
X15910643Y-13805500D02*
X15924928Y-13791214D01*
X15953500Y-13748357D01*
X15967786Y-13719786D01*
X15982071Y-13676929D01*
X15996357Y-13605500D01*
X15996357Y-13548357D01*
X15982071Y-13476929D01*
X15967786Y-13434071D01*
X15953500Y-13405500D01*
X15924928Y-13362643D01*
X15910643Y-13348357D01*
X9102700Y-13900700D02*
X9102700Y-14002300D01*
X9051900Y-13951500D02*
X9153500Y-13951500D01*
X9582071Y-14087214D02*
X9410643Y-14087214D01*
X9496357Y-14087214D02*
X9496357Y-13787214D01*
X9467786Y-13830071D01*
X9439214Y-13858643D01*
X9410643Y-13872929D01*
X9710643Y-14058643D02*
X9724929Y-14072929D01*
X9710643Y-14087214D01*
X9696357Y-14072929D01*
X9710643Y-14058643D01*
X9710643Y-14087214D01*
X9910643Y-13787214D02*
X9939214Y-13787214D01*
X9967786Y-13801500D01*
X9982071Y-13815786D01*
X9996357Y-13844357D01*
X10010643Y-13901500D01*
X10010643Y-13972929D01*
X9996357Y-14030071D01*
X9982071Y-14058643D01*
X9967786Y-14072929D01*
X9939214Y-14087214D01*
X9910643Y-14087214D01*
X9882071Y-14072929D01*
X9867786Y-14058643D01*
X9853500Y-14030071D01*
X9839214Y-13972929D01*
X9839214Y-13901500D01*
X9853500Y-13844357D01*
X9867786Y-13815786D01*
X9882071Y-13801500D01*
X9910643Y-13787214D01*
X10124929Y-13815786D02*
X10139214Y-13801500D01*
X10167786Y-13787214D01*
X10239214Y-13787214D01*
X10267786Y-13801500D01*
X10282071Y-13815786D01*
X10296357Y-13844357D01*
X10296357Y-13872929D01*
X10282071Y-13915786D01*
X10110643Y-14087214D01*
X10296357Y-14087214D01*
X10424929Y-14087214D02*
X10424929Y-13887214D01*
X10424929Y-13915786D02*
X10439214Y-13901500D01*
X10467786Y-13887214D01*
X10510643Y-13887214D01*
X10539214Y-13901500D01*
X10553500Y-13930071D01*
X10553500Y-14087214D01*
X10553500Y-13930071D02*
X10567786Y-13901500D01*
X10596357Y-13887214D01*
X10639214Y-13887214D01*
X10667786Y-13901500D01*
X10682071Y-13930071D01*
X10682071Y-14087214D01*
X10824929Y-14087214D02*
X10824929Y-13887214D01*
X10824929Y-13915786D02*
X10839214Y-13901500D01*
X10867786Y-13887214D01*
X10910643Y-13887214D01*
X10939214Y-13901500D01*
X10953500Y-13930071D01*
X10953500Y-14087214D01*
X10953500Y-13930071D02*
X10967786Y-13901500D01*
X10996357Y-13887214D01*
X11039214Y-13887214D01*
X11067786Y-13901500D01*
X11082071Y-13930071D01*
X11082071Y-14087214D01*
X11667786Y-13772929D02*
X11410643Y-14158643D01*
X12053500Y-13787214D02*
X12082071Y-13787214D01*
X12110643Y-13801500D01*
X12124928Y-13815786D01*
X12139214Y-13844357D01*
X12153500Y-13901500D01*
X12153500Y-13972929D01*
X12139214Y-14030071D01*
X12124928Y-14058643D01*
X12110643Y-14072929D01*
X12082071Y-14087214D01*
X12053500Y-14087214D01*
X12024928Y-14072929D01*
X12010643Y-14058643D01*
X11996357Y-14030071D01*
X11982071Y-13972929D01*
X11982071Y-13901500D01*
X11996357Y-13844357D01*
X12010643Y-13815786D01*
X12024928Y-13801500D01*
X12053500Y-13787214D01*
X12282071Y-14058643D02*
X12296357Y-14072929D01*
X12282071Y-14087214D01*
X12267786Y-14072929D01*
X12282071Y-14058643D01*
X12282071Y-14087214D01*
X12482071Y-13787214D02*
X12510643Y-13787214D01*
X12539214Y-13801500D01*
X12553500Y-13815786D01*
X12567785Y-13844357D01*
X12582071Y-13901500D01*
X12582071Y-13972929D01*
X12567785Y-14030071D01*
X12553500Y-14058643D01*
X12539214Y-14072929D01*
X12510643Y-14087214D01*
X12482071Y-14087214D01*
X12453500Y-14072929D01*
X12439214Y-14058643D01*
X12424928Y-14030071D01*
X12410643Y-13972929D01*
X12410643Y-13901500D01*
X12424928Y-13844357D01*
X12439214Y-13815786D01*
X12453500Y-13801500D01*
X12482071Y-13787214D01*
X12839214Y-13887214D02*
X12839214Y-14087214D01*
X12767785Y-13772929D02*
X12696357Y-13987214D01*
X12882071Y-13987214D01*
X13053500Y-13787214D02*
X13082071Y-13787214D01*
X13110643Y-13801500D01*
X13124928Y-13815786D01*
X13139214Y-13844357D01*
X13153500Y-13901500D01*
X13153500Y-13972929D01*
X13139214Y-14030071D01*
X13124928Y-14058643D01*
X13110643Y-14072929D01*
X13082071Y-14087214D01*
X13053500Y-14087214D01*
X13024928Y-14072929D01*
X13010643Y-14058643D01*
X12996357Y-14030071D01*
X12982071Y-13972929D01*
X12982071Y-13901500D01*
X12996357Y-13844357D01*
X13010643Y-13815786D01*
X13024928Y-13801500D01*
X13053500Y-13787214D01*
X13267786Y-13787214D02*
X13267786Y-13844357D01*
X13382071Y-13787214D02*
X13382071Y-13844357D01*
X13824928Y-14201500D02*
X13810643Y-14187214D01*
X13782071Y-14144357D01*
X13767785Y-14115786D01*
X13753500Y-14072929D01*
X13739214Y-14001500D01*
X13739214Y-13944357D01*
X13753500Y-13872929D01*
X13767785Y-13830071D01*
X13782071Y-13801500D01*
X13810643Y-13758643D01*
X13824928Y-13744357D01*
X14067785Y-13887214D02*
X14067785Y-14087214D01*
X13996357Y-13772929D02*
X13924928Y-13987214D01*
X14110643Y-13987214D01*
X14267785Y-13915786D02*
X14239214Y-13901500D01*
X14224928Y-13887214D01*
X14210643Y-13858643D01*
X14210643Y-13844357D01*
X14224928Y-13815786D01*
X14239214Y-13801500D01*
X14267785Y-13787214D01*
X14324928Y-13787214D01*
X14353500Y-13801500D01*
X14367785Y-13815786D01*
X14382071Y-13844357D01*
X14382071Y-13858643D01*
X14367785Y-13887214D01*
X14353500Y-13901500D01*
X14324928Y-13915786D01*
X14267785Y-13915786D01*
X14239214Y-13930071D01*
X14224928Y-13944357D01*
X14210643Y-13972929D01*
X14210643Y-14030071D01*
X14224928Y-14058643D01*
X14239214Y-14072929D01*
X14267785Y-14087214D01*
X14324928Y-14087214D01*
X14353500Y-14072929D01*
X14367785Y-14058643D01*
X14382071Y-14030071D01*
X14382071Y-13972929D01*
X14367785Y-13944357D01*
X14353500Y-13930071D01*
X14324928Y-13915786D01*
X14739214Y-14087214D02*
X14739214Y-13787214D01*
X14867785Y-14087214D02*
X14867785Y-13930071D01*
X14853500Y-13901500D01*
X14824928Y-13887214D01*
X14782071Y-13887214D01*
X14753500Y-13901500D01*
X14739214Y-13915786D01*
X15053500Y-14087214D02*
X15024928Y-14072929D01*
X15010643Y-14058643D01*
X14996357Y-14030071D01*
X14996357Y-13944357D01*
X15010643Y-13915786D01*
X15024928Y-13901500D01*
X15053500Y-13887214D01*
X15096357Y-13887214D01*
X15124928Y-13901500D01*
X15139214Y-13915786D01*
X15153500Y-13944357D01*
X15153500Y-14030071D01*
X15139214Y-14058643D01*
X15124928Y-14072929D01*
X15096357Y-14087214D01*
X15053500Y-14087214D01*
X15324928Y-14087214D02*
X15296357Y-14072929D01*
X15282071Y-14044357D01*
X15282071Y-13787214D01*
X15553500Y-14072929D02*
X15524928Y-14087214D01*
X15467786Y-14087214D01*
X15439214Y-14072929D01*
X15424928Y-14044357D01*
X15424928Y-13930071D01*
X15439214Y-13901500D01*
X15467786Y-13887214D01*
X15524928Y-13887214D01*
X15553500Y-13901500D01*
X15567786Y-13930071D01*
X15567786Y-13958643D01*
X15424928Y-13987214D01*
X15682071Y-14072929D02*
X15710643Y-14087214D01*
X15767786Y-14087214D01*
X15796357Y-14072929D01*
X15810643Y-14044357D01*
X15810643Y-14030071D01*
X15796357Y-14001500D01*
X15767786Y-13987214D01*
X15724928Y-13987214D01*
X15696357Y-13972929D01*
X15682071Y-13944357D01*
X15682071Y-13930071D01*
X15696357Y-13901500D01*
X15724928Y-13887214D01*
X15767786Y-13887214D01*
X15796357Y-13901500D01*
X15910643Y-14201500D02*
X15924928Y-14187214D01*
X15953500Y-14144357D01*
X15967786Y-14115786D01*
X15982071Y-14072929D01*
X15996357Y-14001500D01*
X15996357Y-13944357D01*
X15982071Y-13872929D01*
X15967786Y-13830071D01*
X15953500Y-13801500D01*
X15924928Y-13758643D01*
X15910643Y-13744357D01*
M02*
