M48
;DRILL file {KiCad 4.0.1-stable} date Sun 10 Jan 2016 07:27:58 PM CET
;FORMAT={-:-/ absolute / metric / decimal}
FMAT,2
METRIC,TZ
T1C0.400
T2C0.762
T3C1.016
%
G90
G05
M71
T1
X158.75Y-107.95
X162.56Y-100.33
T2
X116.84Y-64.77
X116.84Y-69.85
X116.84Y-74.93
X116.84Y-80.01
X116.84Y-85.09
X116.84Y-90.17
X116.84Y-95.25
X116.84Y-100.33
X120.65Y-54.61
X120.65Y-107.95
X123.19Y-54.61
X125.73Y-54.61
X125.73Y-107.95
X128.27Y-54.61
X128.27Y-107.95
X130.81Y-54.61
X130.81Y-107.95
X133.35Y-54.61
X133.35Y-107.95
X135.89Y-54.61
X135.89Y-107.95
X138.43Y-54.61
X138.43Y-107.95
X140.97Y-54.61
X140.97Y-107.95
X143.51Y-54.61
X143.51Y-107.95
X146.05Y-54.61
X146.05Y-107.95
X148.59Y-54.61
X148.59Y-107.95
X151.13Y-54.61
X151.13Y-107.95
X153.67Y-54.61
X153.67Y-107.95
X156.21Y-54.61
X156.21Y-107.95
X158.75Y-54.61
X158.75Y-107.95
X162.56Y-62.23
X162.56Y-64.77
X162.56Y-67.31
X162.56Y-69.85
X162.56Y-72.39
X162.56Y-74.93
X162.56Y-77.47
X162.56Y-80.01
X162.56Y-82.55
X162.56Y-85.09
X162.56Y-87.63
X162.56Y-92.71
X162.56Y-95.25
X162.56Y-97.79
X162.56Y-100.33
X174.795Y-105.085
X174.795Y-112.085
X179.24Y-80.01
X181.78Y-100.33
T3
X99.06Y-68.58
X99.06Y-71.12
X99.06Y-73.66
X99.06Y-76.2
X99.06Y-78.74
X99.06Y-81.28
X99.06Y-83.82
X99.06Y-86.36
X99.06Y-88.9
X99.06Y-91.44
X167.81Y-106.045
X170.35Y-106.045
X179.24Y-57.15
X179.24Y-59.69
X179.24Y-62.23
X179.24Y-64.77
X179.24Y-67.31
X179.24Y-69.85
X179.24Y-72.39
X179.24Y-85.09
X179.24Y-87.63
X179.24Y-90.17
X179.24Y-92.71
X179.24Y-95.25
X179.24Y-97.79
X179.24Y-100.33
X179.24Y-102.87
X179.24Y-105.41
X181.78Y-57.15
X181.78Y-59.69
X181.78Y-62.23
X181.78Y-64.77
X181.78Y-67.31
X181.78Y-69.85
X181.78Y-72.39
X181.78Y-77.47
X181.78Y-80.01
X181.78Y-82.55
X181.78Y-85.09
X181.78Y-87.63
X181.78Y-90.17
X181.78Y-92.71
X181.78Y-95.25
X181.78Y-97.79
X181.78Y-102.87
X181.78Y-105.41
X186.86Y-116.205
X189.4Y-116.205
T0
M30
