G04 #@! TF.FileFunction,Copper,L1,Top,Signal*
%FSLAX46Y46*%
G04 Gerber Fmt 4.6, Leading zero omitted, Abs format (unit mm)*
G04 Created by KiCad (PCBNEW 4.0.1-stable) date Sun 10 Jan 2016 07:27:55 PM CET*
%MOMM*%
G01*
G04 APERTURE LIST*
%ADD10C,0.100000*%
%ADD11R,1.200000X0.900000*%
%ADD12C,1.524000*%
%ADD13R,1.727200X1.727200*%
%ADD14O,1.727200X1.727200*%
%ADD15R,0.750000X1.200000*%
%ADD16R,1.200000X0.750000*%
%ADD17R,2.032000X1.727200*%
%ADD18O,2.032000X1.727200*%
%ADD19R,2.032000X2.032000*%
%ADD20O,2.032000X2.032000*%
%ADD21R,2.160000X1.070000*%
%ADD22C,0.600000*%
%ADD23C,0.800000*%
%ADD24C,1.000000*%
G04 APERTURE END LIST*
D10*
D11*
X179410000Y-116205000D03*
X181610000Y-116205000D03*
D12*
X116840000Y-64770000D03*
X116840000Y-69850000D03*
X116840000Y-74930000D03*
X116840000Y-80010000D03*
X116840000Y-85090000D03*
X116840000Y-90170000D03*
X116840000Y-95250000D03*
X116840000Y-100330000D03*
X162560000Y-62230000D03*
X162560000Y-64770000D03*
X162560000Y-67310000D03*
X162560000Y-74930000D03*
X162560000Y-77470000D03*
X162560000Y-80010000D03*
X162560000Y-82550000D03*
X162560000Y-85090000D03*
X162560000Y-92710000D03*
X162560000Y-95250000D03*
X162560000Y-97790000D03*
X162560000Y-100330000D03*
X120650000Y-54610000D03*
X123190000Y-54610000D03*
X125730000Y-54610000D03*
X128270000Y-54610000D03*
X130810000Y-54610000D03*
X133350000Y-54610000D03*
X135890000Y-54610000D03*
X138430000Y-54610000D03*
X140970000Y-54610000D03*
X143510000Y-54610000D03*
X146050000Y-54610000D03*
X148590000Y-54610000D03*
X151130000Y-54610000D03*
X153670000Y-54610000D03*
X156210000Y-54610000D03*
X158750000Y-54610000D03*
X120650000Y-107950000D03*
X125730000Y-107950000D03*
X128270000Y-107950000D03*
X130810000Y-107950000D03*
X133350000Y-107950000D03*
X135890000Y-107950000D03*
X138430000Y-107950000D03*
X140970000Y-107950000D03*
X143510000Y-107950000D03*
X146050000Y-107950000D03*
X148590000Y-107950000D03*
X151130000Y-107950000D03*
X153670000Y-107950000D03*
X156210000Y-107950000D03*
X158750000Y-107950000D03*
X162560000Y-87630000D03*
X162560000Y-72390000D03*
X162560000Y-69850000D03*
D13*
X181780000Y-105410000D03*
D14*
X179240000Y-105410000D03*
X181780000Y-102870000D03*
X179240000Y-102870000D03*
X179240000Y-100330000D03*
X181780000Y-97790000D03*
X179240000Y-97790000D03*
X181780000Y-95250000D03*
X179240000Y-95250000D03*
X181780000Y-92710000D03*
X179240000Y-92710000D03*
X181780000Y-90170000D03*
X179240000Y-90170000D03*
X181780000Y-87630000D03*
X179240000Y-87630000D03*
X181780000Y-85090000D03*
X179240000Y-85090000D03*
X181780000Y-82550000D03*
X181780000Y-80010000D03*
X181780000Y-77470000D03*
X181780000Y-72390000D03*
X179240000Y-72390000D03*
X181780000Y-69850000D03*
X179240000Y-69850000D03*
X181780000Y-67310000D03*
X179240000Y-67310000D03*
X181780000Y-64770000D03*
X179240000Y-64770000D03*
X181780000Y-62230000D03*
X179240000Y-62230000D03*
X181780000Y-59690000D03*
X179240000Y-59690000D03*
X181780000Y-57150000D03*
X179240000Y-57150000D03*
D12*
X181780000Y-100330000D03*
X179240000Y-80010000D03*
D15*
X110490000Y-60010000D03*
X110490000Y-61910000D03*
X110490000Y-65090000D03*
X110490000Y-66990000D03*
X110490000Y-70170000D03*
X110490000Y-72070000D03*
X110490000Y-75250000D03*
X110490000Y-77150000D03*
X110490000Y-80330000D03*
X110490000Y-82230000D03*
X110490000Y-85410000D03*
X110490000Y-87310000D03*
X110490000Y-90490000D03*
X110490000Y-92390000D03*
X110490000Y-95570000D03*
X110490000Y-97470000D03*
X110490000Y-100650000D03*
X110490000Y-102550000D03*
X110490000Y-105730000D03*
X110490000Y-107630000D03*
X138430000Y-112080000D03*
X138430000Y-113980000D03*
X135890000Y-112080000D03*
X135890000Y-113980000D03*
X143510000Y-112080000D03*
X143510000Y-113980000D03*
X148590000Y-112080000D03*
X148590000Y-113980000D03*
X153670000Y-112080000D03*
X153670000Y-113980000D03*
D16*
X123510000Y-48260000D03*
X125410000Y-48260000D03*
D15*
X143510000Y-48580000D03*
X143510000Y-50480000D03*
X139700000Y-48580000D03*
X139700000Y-50480000D03*
D16*
X132400000Y-48260000D03*
X134300000Y-48260000D03*
X132400000Y-50800000D03*
X134300000Y-50800000D03*
X166690000Y-58420000D03*
X168590000Y-58420000D03*
X166690000Y-62230000D03*
X168590000Y-62230000D03*
D17*
X99060000Y-91440000D03*
D18*
X99060000Y-88900000D03*
X99060000Y-86360000D03*
X99060000Y-83820000D03*
X99060000Y-81280000D03*
X99060000Y-78740000D03*
X99060000Y-76200000D03*
X99060000Y-73660000D03*
X99060000Y-71120000D03*
X99060000Y-68580000D03*
D11*
X106510000Y-59690000D03*
X104310000Y-59690000D03*
X106510000Y-64770000D03*
X104310000Y-64770000D03*
X106510000Y-69850000D03*
X104310000Y-69850000D03*
X106510000Y-74930000D03*
X104310000Y-74930000D03*
X106510000Y-80010000D03*
X104310000Y-80010000D03*
X106510000Y-85090000D03*
X104310000Y-85090000D03*
X106510000Y-90170000D03*
X104310000Y-90170000D03*
X106510000Y-95250000D03*
X104310000Y-95250000D03*
X106510000Y-100330000D03*
X104310000Y-100330000D03*
X106510000Y-105410000D03*
X104310000Y-105410000D03*
X123360000Y-50800000D03*
X125560000Y-50800000D03*
D19*
X167810000Y-106045000D03*
D20*
X170350000Y-106045000D03*
D19*
X189400000Y-116205000D03*
D20*
X186860000Y-116205000D03*
D16*
X171300000Y-109220000D03*
X169400000Y-109220000D03*
D15*
X175430000Y-115255000D03*
X175430000Y-117155000D03*
D21*
X170350000Y-111760000D03*
X170350000Y-114300000D03*
X170350000Y-116840000D03*
D12*
X174795000Y-112085000D03*
X174795000Y-105085000D03*
D22*
X158750000Y-107950000D03*
X162560000Y-100330000D03*
D23*
X110490000Y-60010000D02*
X110490000Y-55880000D01*
X115570000Y-50800000D02*
X123360000Y-50800000D01*
X110490000Y-55880000D02*
X115570000Y-50800000D01*
X106510000Y-59690000D02*
X110170000Y-59690000D01*
X110170000Y-59690000D02*
X110490000Y-60010000D01*
X123190000Y-54610000D02*
X125730000Y-54610000D01*
X123510000Y-48260000D02*
X123510000Y-50650000D01*
X123510000Y-50650000D02*
X123360000Y-50800000D01*
X123190000Y-54610000D02*
X123190000Y-50970000D01*
X123190000Y-50970000D02*
X123360000Y-50800000D01*
X110810000Y-59690000D02*
X110490000Y-60010000D01*
X123360000Y-54440000D02*
X123190000Y-54610000D01*
X123360000Y-54440000D02*
X123190000Y-54610000D01*
X106510000Y-64770000D02*
X110170000Y-64770000D01*
X110170000Y-64770000D02*
X110490000Y-65090000D01*
X106830000Y-65090000D02*
X106510000Y-64770000D01*
X116840000Y-64770000D02*
X110810000Y-64770000D01*
X110810000Y-64770000D02*
X110490000Y-65090000D01*
X106510000Y-64770000D02*
X106680000Y-64770000D01*
X106510000Y-69850000D02*
X110170000Y-69850000D01*
X110170000Y-69850000D02*
X110490000Y-70170000D01*
X106830000Y-70170000D02*
X106510000Y-69850000D01*
X116840000Y-69850000D02*
X110810000Y-69850000D01*
X110810000Y-69850000D02*
X110490000Y-70170000D01*
X106510000Y-69850000D02*
X106680000Y-69850000D01*
X106510000Y-74930000D02*
X110170000Y-74930000D01*
X110170000Y-74930000D02*
X110490000Y-75250000D01*
X116840000Y-74930000D02*
X110810000Y-74930000D01*
X110810000Y-74930000D02*
X110490000Y-75250000D01*
X116520000Y-75250000D02*
X116840000Y-74930000D01*
X106510000Y-74930000D02*
X106680000Y-74930000D01*
X110490000Y-80330000D02*
X116520000Y-80330000D01*
X116520000Y-80330000D02*
X116840000Y-80010000D01*
X106510000Y-80010000D02*
X110170000Y-80010000D01*
X110170000Y-80010000D02*
X110490000Y-80330000D01*
X110490000Y-85410000D02*
X116520000Y-85410000D01*
X116520000Y-85410000D02*
X116840000Y-85090000D01*
X106510000Y-85090000D02*
X110170000Y-85090000D01*
X110170000Y-85090000D02*
X110490000Y-85410000D01*
X110490000Y-90490000D02*
X116520000Y-90490000D01*
X116520000Y-90490000D02*
X116840000Y-90170000D01*
X106510000Y-90170000D02*
X110170000Y-90170000D01*
X110170000Y-90170000D02*
X110490000Y-90490000D01*
X106510000Y-90170000D02*
X106680000Y-90170000D01*
X110490000Y-95570000D02*
X116520000Y-95570000D01*
X116520000Y-95570000D02*
X116840000Y-95250000D01*
X106510000Y-95250000D02*
X110170000Y-95250000D01*
X110170000Y-95250000D02*
X110490000Y-95570000D01*
X106510000Y-95250000D02*
X106680000Y-95250000D01*
X110490000Y-100650000D02*
X116520000Y-100650000D01*
X116520000Y-100650000D02*
X116840000Y-100330000D01*
X106510000Y-100330000D02*
X110170000Y-100330000D01*
X110170000Y-100330000D02*
X110490000Y-100650000D01*
X106510000Y-100330000D02*
X106680000Y-100330000D01*
X110490000Y-105730000D02*
X117790000Y-105730000D01*
X117790000Y-105730000D02*
X120010000Y-107950000D01*
X120010000Y-107950000D02*
X120650000Y-107950000D01*
X106510000Y-105410000D02*
X110170000Y-105410000D01*
X110170000Y-105410000D02*
X110490000Y-105730000D01*
X106510000Y-105410000D02*
X106680000Y-105410000D01*
X153670000Y-112080000D02*
X153670000Y-107950000D01*
D24*
X137330000Y-102870000D02*
X133350000Y-98890000D01*
D23*
X179240000Y-102870000D02*
X175430000Y-102870000D01*
X140970000Y-54610000D02*
X140970000Y-55880000D01*
X140970000Y-55880000D02*
X139700000Y-57150000D01*
X135890000Y-57150000D02*
X133350000Y-59690000D01*
X132400000Y-48260000D02*
X132400000Y-50800000D01*
X130810000Y-107950000D02*
X130810000Y-106680000D01*
X125730000Y-106680000D02*
X125730000Y-107950000D01*
X127000000Y-105410000D02*
X125730000Y-106680000D01*
X129540000Y-105410000D02*
X127000000Y-105410000D01*
X130810000Y-106680000D02*
X129540000Y-105410000D01*
X130810000Y-107950000D02*
X133350000Y-107950000D01*
X133350000Y-54610000D02*
X133350000Y-59690000D01*
X133350000Y-59690000D02*
X133350000Y-73660000D01*
X133350000Y-97790000D02*
X133350000Y-98890000D01*
X133350000Y-73660000D02*
X133350000Y-97790000D01*
X133350000Y-98890000D02*
X133350000Y-100330000D01*
X133350000Y-100330000D02*
X133350000Y-101430000D01*
X133350000Y-101430000D02*
X133350000Y-107950000D01*
X140970000Y-57150000D02*
X139700000Y-57150000D01*
X139700000Y-57150000D02*
X135890000Y-57150000D01*
X146050000Y-54610000D02*
X146050000Y-55880000D01*
X144780000Y-57150000D02*
X140970000Y-57150000D01*
X146050000Y-55880000D02*
X144780000Y-57150000D01*
X133350000Y-54610000D02*
X133350000Y-53340000D01*
X133350000Y-53340000D02*
X132400000Y-52390000D01*
X132400000Y-52390000D02*
X132400000Y-50800000D01*
X142410000Y-102870000D02*
X137330000Y-102870000D01*
X175430000Y-102870000D02*
X142410000Y-102870000D01*
X185590000Y-55880000D02*
X186860000Y-57150000D01*
X186860000Y-82550000D02*
X185590000Y-83820000D01*
X186860000Y-57150000D02*
X186860000Y-82550000D01*
X184320000Y-54610000D02*
X185590000Y-55880000D01*
X183050000Y-54610000D02*
X184320000Y-54610000D01*
X175345000Y-57235000D02*
X175345000Y-55965000D01*
X176700000Y-54610000D02*
X177970000Y-54610000D01*
X175345000Y-55965000D02*
X176700000Y-54610000D01*
X177970000Y-54610000D02*
X183050000Y-54610000D01*
X181780000Y-85090000D02*
X184320000Y-85090000D01*
X184320000Y-85090000D02*
X185590000Y-83820000D01*
X175345000Y-58505000D02*
X175345000Y-57235000D01*
X175345000Y-59605000D02*
X170180000Y-64770000D01*
X170180000Y-64770000D02*
X167640000Y-64770000D01*
X167640000Y-64770000D02*
X166690000Y-63820000D01*
X166690000Y-63820000D02*
X166690000Y-62230000D01*
X175345000Y-59605000D02*
X175345000Y-58505000D01*
X156210000Y-59690000D02*
X151130000Y-54610000D01*
X156210000Y-54610000D02*
X156210000Y-57150000D01*
X156210000Y-57150000D02*
X156210000Y-59690000D01*
X158750000Y-62230000D02*
X162560000Y-62230000D01*
X156210000Y-59690000D02*
X158750000Y-62230000D01*
X166690000Y-62230000D02*
X166690000Y-58420000D01*
X162560000Y-62230000D02*
X166690000Y-62230000D01*
X104310000Y-100330000D02*
X101600000Y-100330000D01*
X99060000Y-97790000D02*
X99060000Y-91440000D01*
X101600000Y-100330000D02*
X99060000Y-97790000D01*
X104140000Y-100330000D02*
X104310000Y-100330000D01*
X104310000Y-95250000D02*
X103675000Y-95250000D01*
X101135000Y-88900000D02*
X99060000Y-88900000D01*
X102405000Y-90170000D02*
X101135000Y-88900000D01*
X102405000Y-93980000D02*
X102405000Y-90170000D01*
X103675000Y-95250000D02*
X102405000Y-93980000D01*
X104310000Y-90170000D02*
X104310000Y-87800000D01*
X102870000Y-86360000D02*
X99060000Y-86360000D01*
X104310000Y-87800000D02*
X102870000Y-86360000D01*
X104310000Y-85090000D02*
X104140000Y-85090000D01*
X104140000Y-85090000D02*
X102870000Y-83820000D01*
X102870000Y-83820000D02*
X99060000Y-83820000D01*
X104310000Y-80010000D02*
X104140000Y-80010000D01*
X104140000Y-80010000D02*
X102870000Y-81280000D01*
X102870000Y-81280000D02*
X99060000Y-81280000D01*
X99060000Y-78740000D02*
X101770000Y-78740000D01*
X104310000Y-76200000D02*
X104310000Y-74930000D01*
X101770000Y-78740000D02*
X104310000Y-76200000D01*
X102405000Y-73660000D02*
X102405000Y-74295000D01*
X102405000Y-74295000D02*
X100500000Y-76200000D01*
X102405000Y-73660000D02*
X104310000Y-71755000D01*
X104310000Y-71755000D02*
X104310000Y-71120000D01*
X99060000Y-76200000D02*
X100500000Y-76200000D01*
X99060000Y-76200000D02*
X99230000Y-76200000D01*
X104310000Y-71120000D02*
X104310000Y-69850000D01*
X104310000Y-64770000D02*
X102405000Y-66675000D01*
X101135000Y-72390000D02*
X99865000Y-73660000D01*
X101770000Y-71755000D02*
X101770000Y-67310000D01*
X101770000Y-67310000D02*
X102405000Y-66675000D01*
X101135000Y-72390000D02*
X101770000Y-71755000D01*
X99060000Y-73660000D02*
X99865000Y-73660000D01*
X104140000Y-64770000D02*
X104310000Y-64770000D01*
X104310000Y-105410000D02*
X101600000Y-105410000D01*
X96520000Y-71120000D02*
X99060000Y-71120000D01*
X95250000Y-72390000D02*
X96520000Y-71120000D01*
X95250000Y-99060000D02*
X95250000Y-72390000D01*
X101600000Y-105410000D02*
X95250000Y-99060000D01*
X99060000Y-71120000D02*
X99060000Y-71120000D01*
X99060000Y-68580000D02*
X99060000Y-63500000D01*
X102870000Y-59690000D02*
X104310000Y-59690000D01*
X99060000Y-63500000D02*
X102870000Y-59690000D01*
X162560000Y-85090000D02*
X171620000Y-85090000D01*
X176700000Y-80010000D02*
X179240000Y-80010000D01*
X171620000Y-85090000D02*
X176700000Y-80010000D01*
X164000000Y-64770000D02*
X166540000Y-67310000D01*
X166540000Y-67310000D02*
X167810000Y-67310000D01*
X162560000Y-64770000D02*
X164000000Y-64770000D01*
X176700000Y-62230000D02*
X179240000Y-62230000D01*
X167810000Y-67310000D02*
X171620000Y-67310000D01*
X171620000Y-67310000D02*
X176700000Y-62230000D01*
X179240000Y-97790000D02*
X174160000Y-97790000D01*
X171620000Y-95250000D02*
X162560000Y-95250000D01*
X174160000Y-97790000D02*
X171620000Y-95250000D01*
X162560000Y-97790000D02*
X161460000Y-97790000D01*
X177970000Y-82550000D02*
X181780000Y-82550000D01*
X170350000Y-90170000D02*
X177970000Y-82550000D01*
X161460000Y-90170000D02*
X170350000Y-90170000D01*
X160190000Y-91440000D02*
X161460000Y-90170000D01*
X160190000Y-96520000D02*
X160190000Y-91440000D01*
X161460000Y-97790000D02*
X160190000Y-96520000D01*
X162560000Y-74930000D02*
X183050000Y-74930000D01*
X183050000Y-80010000D02*
X181780000Y-80010000D01*
X184320000Y-78740000D02*
X183050000Y-80010000D01*
X184320000Y-76200000D02*
X184320000Y-78740000D01*
X183050000Y-74930000D02*
X184320000Y-76200000D01*
X162560000Y-82550000D02*
X170350000Y-82550000D01*
X175430000Y-77470000D02*
X181780000Y-77470000D01*
X170350000Y-82550000D02*
X175430000Y-77470000D01*
X179240000Y-95250000D02*
X175430000Y-95250000D01*
X172890000Y-92710000D02*
X162560000Y-92710000D01*
X175430000Y-95250000D02*
X172890000Y-92710000D01*
X138430000Y-112080000D02*
X138430000Y-107950000D01*
X135890000Y-112080000D02*
X138430000Y-112080000D01*
X143510000Y-112080000D02*
X143510000Y-107950000D01*
X148590000Y-112080000D02*
X148590000Y-107950000D01*
X125560000Y-50800000D02*
X125560000Y-48410000D01*
X125560000Y-48410000D02*
X125410000Y-48260000D01*
X125560000Y-50800000D02*
X127000000Y-50800000D01*
X128270000Y-52070000D02*
X128270000Y-54610000D01*
X127000000Y-50800000D02*
X128270000Y-52070000D01*
X143510000Y-50480000D02*
X143510000Y-54610000D01*
X143510000Y-50480000D02*
X139700000Y-50480000D01*
X143190000Y-54290000D02*
X143510000Y-54610000D01*
X179410000Y-116205000D02*
X179410000Y-112860000D01*
X183685000Y-97790000D02*
X181780000Y-97790000D01*
X184955000Y-99060000D02*
X183685000Y-97790000D01*
X184955000Y-107315000D02*
X184955000Y-99060000D01*
X179410000Y-112860000D02*
X184955000Y-107315000D01*
X181610000Y-116205000D02*
X186860000Y-116205000D01*
X170350000Y-111760000D02*
X174470000Y-111760000D01*
X174470000Y-111760000D02*
X174795000Y-112085000D01*
X174795000Y-112085000D02*
X174795000Y-109855000D01*
X174160000Y-109220000D02*
X171300000Y-109220000D01*
X174795000Y-109855000D02*
X174160000Y-109220000D01*
X170352500Y-111757500D02*
X170350000Y-111760000D01*
X169715000Y-111760000D02*
X170350000Y-111760000D01*
X188130000Y-91440000D02*
X189400000Y-90170000D01*
X189400000Y-116205000D02*
X189400000Y-90170000D01*
X189400000Y-90170000D02*
X189400000Y-89535000D01*
X189400000Y-55880000D02*
X188130000Y-54610000D01*
X189400000Y-89535000D02*
X189400000Y-55880000D01*
X175430000Y-117155000D02*
X175430000Y-117475000D01*
X175430000Y-117475000D02*
X176700000Y-118745000D01*
X188130000Y-118110000D02*
X189400000Y-116205000D01*
X187495000Y-118745000D02*
X188130000Y-118110000D01*
X176700000Y-118745000D02*
X187495000Y-118745000D01*
X175430000Y-117155000D02*
X170665000Y-117155000D01*
X170665000Y-117155000D02*
X170350000Y-116840000D01*
X137965000Y-46185000D02*
X144145000Y-46185000D01*
X143510000Y-48580000D02*
X146540000Y-48580000D01*
X146540000Y-48260000D02*
X146220000Y-48260000D01*
X146220000Y-48260000D02*
X144145000Y-46185000D01*
X146540000Y-48580000D02*
X146540000Y-48260000D01*
X137160000Y-46990000D02*
X137965000Y-46185000D01*
D24*
X150030000Y-52070000D02*
X148760000Y-50800000D01*
D23*
X148760000Y-50800000D02*
X146540000Y-48580000D01*
X167810000Y-106045000D02*
X167810000Y-107630000D01*
X167810000Y-107630000D02*
X169400000Y-109220000D01*
X169400000Y-109220000D02*
X169080000Y-109220000D01*
X169080000Y-109220000D02*
X166540000Y-111760000D01*
X166540000Y-111760000D02*
X166540000Y-115570000D01*
X156695000Y-113980000D02*
X164950000Y-113980000D01*
X167810000Y-116840000D02*
X170350000Y-116840000D01*
X164950000Y-113980000D02*
X166540000Y-115570000D01*
X166540000Y-115570000D02*
X167810000Y-116840000D01*
X153670000Y-113980000D02*
X156695000Y-113980000D01*
X158750000Y-111930000D02*
X158750000Y-107950000D01*
X158285000Y-112395000D02*
X158750000Y-111930000D01*
X158280000Y-112395000D02*
X158285000Y-112395000D01*
X156695000Y-113980000D02*
X158280000Y-112395000D01*
X181780000Y-95250000D02*
X184320000Y-95250000D01*
X184320000Y-95250000D02*
X187812500Y-91757500D01*
X187812500Y-91757500D02*
X188130000Y-91440000D01*
X172890000Y-54610000D02*
X175430000Y-52070000D01*
X188130000Y-54610000D02*
X185590000Y-52070000D01*
X184320000Y-52070000D02*
X185590000Y-52070000D01*
X169080000Y-54610000D02*
X172890000Y-54610000D01*
X176700000Y-52070000D02*
X184320000Y-52070000D01*
X175430000Y-52070000D02*
X176700000Y-52070000D01*
X162560000Y-100330000D02*
X179240000Y-100330000D01*
D24*
X158920000Y-108120000D02*
X158750000Y-107950000D01*
D23*
X154940000Y-52070000D02*
X150030000Y-52070000D01*
D24*
X150030000Y-52070000D02*
X149860000Y-52070000D01*
D23*
X158750000Y-54610000D02*
X169080000Y-54610000D01*
D24*
X168590000Y-58420000D02*
X168590000Y-55100000D01*
X168590000Y-55100000D02*
X169080000Y-54610000D01*
D23*
X162560000Y-80010000D02*
X160190000Y-80010000D01*
X160190000Y-80010000D02*
X157650000Y-82550000D01*
X157650000Y-82550000D02*
X157650000Y-97790000D01*
X157650000Y-97790000D02*
X160190000Y-100330000D01*
X160190000Y-100330000D02*
X162560000Y-100330000D01*
X170032500Y-117157500D02*
X170350000Y-116840000D01*
X156210000Y-107950000D02*
X158750000Y-107950000D01*
X134300000Y-48260000D02*
X135890000Y-48260000D01*
X135890000Y-48260000D02*
X137160000Y-46990000D01*
X110490000Y-66990000D02*
X117790000Y-66990000D01*
X117790000Y-66990000D02*
X119380000Y-65400000D01*
X110490000Y-72070000D02*
X117790000Y-72070000D01*
X117790000Y-72070000D02*
X119380000Y-70480000D01*
X110490000Y-61910000D02*
X117790000Y-61910000D01*
X119380000Y-63500000D02*
X119380000Y-65400000D01*
X119380000Y-65400000D02*
X119380000Y-66990000D01*
X117790000Y-61910000D02*
X119380000Y-63500000D01*
X110490000Y-107630000D02*
X116520000Y-107630000D01*
X119380000Y-110490000D02*
X124460000Y-110490000D01*
X116520000Y-107630000D02*
X119380000Y-110490000D01*
X110490000Y-102550000D02*
X117790000Y-102550000D01*
X117790000Y-102550000D02*
X119380000Y-100960000D01*
X110490000Y-97470000D02*
X117790000Y-97470000D01*
X117790000Y-97470000D02*
X119380000Y-95880000D01*
X110490000Y-92390000D02*
X117790000Y-92390000D01*
X119380000Y-90800000D02*
X119380000Y-90170000D01*
X117790000Y-92390000D02*
X119380000Y-90800000D01*
X110490000Y-87310000D02*
X117790000Y-87310000D01*
X117790000Y-87310000D02*
X119380000Y-85720000D01*
X110490000Y-82230000D02*
X117790000Y-82230000D01*
X117790000Y-82230000D02*
X119380000Y-80640000D01*
X110490000Y-77150000D02*
X117790000Y-77150000D01*
X117790000Y-77150000D02*
X119380000Y-75560000D01*
X148590000Y-54610000D02*
X148590000Y-53340000D01*
X148590000Y-53340000D02*
X149860000Y-52070000D01*
X124460000Y-110490000D02*
X129540000Y-110490000D01*
X128270000Y-107950000D02*
X128270000Y-109220000D01*
X128270000Y-109220000D02*
X129540000Y-110490000D01*
X123190000Y-109220000D02*
X124460000Y-110490000D01*
X135890000Y-54610000D02*
X137160000Y-53340000D01*
X137160000Y-48260000D02*
X137160000Y-46990000D01*
X137160000Y-50800000D02*
X137160000Y-48260000D01*
X137160000Y-53340000D02*
X137160000Y-50800000D01*
X143510000Y-48580000D02*
X143510000Y-48260000D01*
X138430000Y-54610000D02*
X135890000Y-54610000D01*
X134300000Y-50800000D02*
X134300000Y-48260000D01*
X119380000Y-101600000D02*
X119380000Y-104140000D01*
X123190000Y-107950000D02*
X123190000Y-109220000D01*
X119380000Y-104140000D02*
X123190000Y-107950000D01*
X119380000Y-101600000D02*
X119380000Y-100960000D01*
X119380000Y-100960000D02*
X119380000Y-96520000D01*
X119380000Y-96520000D02*
X119380000Y-95880000D01*
X119380000Y-95880000D02*
X119380000Y-91440000D01*
X119380000Y-91440000D02*
X119380000Y-90170000D01*
X119380000Y-90170000D02*
X119380000Y-86360000D01*
X119380000Y-86360000D02*
X119380000Y-85720000D01*
X119380000Y-85720000D02*
X119380000Y-81280000D01*
X119380000Y-81280000D02*
X119380000Y-80640000D01*
X119380000Y-80640000D02*
X119380000Y-76200000D01*
X119380000Y-76200000D02*
X119380000Y-75560000D01*
X119380000Y-75560000D02*
X119380000Y-72070000D01*
X119380000Y-72070000D02*
X119380000Y-71120000D01*
X119380000Y-71120000D02*
X119380000Y-70480000D01*
X119380000Y-70480000D02*
X119380000Y-66990000D01*
X135890000Y-113980000D02*
X134300000Y-113980000D01*
X130810000Y-110490000D02*
X129540000Y-110490000D01*
X134300000Y-113980000D02*
X130810000Y-110490000D01*
X140970000Y-107950000D02*
X140970000Y-106680000D01*
X135890000Y-106680000D02*
X135890000Y-107950000D01*
X137160000Y-105410000D02*
X135890000Y-106680000D01*
X139700000Y-105410000D02*
X137160000Y-105410000D01*
X140970000Y-106680000D02*
X139700000Y-105410000D01*
X135890000Y-107950000D02*
X135890000Y-109220000D01*
X135890000Y-109220000D02*
X134620000Y-110490000D01*
X134620000Y-110490000D02*
X129540000Y-110490000D01*
X138430000Y-113980000D02*
X135890000Y-113980000D01*
X138430000Y-113980000D02*
X141920000Y-113980000D01*
X143510000Y-113980000D02*
X141920000Y-113980000D01*
X148590000Y-113980000D02*
X143510000Y-113980000D01*
X153670000Y-113980000D02*
X148590000Y-113980000D01*
X139700000Y-48580000D02*
X143510000Y-48580000D01*
X158750000Y-54610000D02*
X158750000Y-53340000D01*
X153670000Y-53340000D02*
X153670000Y-54610000D01*
X154940000Y-52070000D02*
X153670000Y-53340000D01*
X157480000Y-52070000D02*
X154940000Y-52070000D01*
X158750000Y-53340000D02*
X157480000Y-52070000D01*
X168590000Y-58420000D02*
X168910000Y-58420000D01*
X168590000Y-58420000D02*
X168590000Y-62230000D01*
X170032500Y-117157500D02*
X170350000Y-116840000D01*
X175430000Y-115255000D02*
X175745000Y-115255000D01*
X175745000Y-115255000D02*
X177335000Y-113665000D01*
X177335000Y-107315000D02*
X179240000Y-105410000D01*
X177335000Y-113665000D02*
X177335000Y-107315000D01*
X175430000Y-115255000D02*
X175430000Y-114935000D01*
X170350000Y-114300000D02*
X172255000Y-114300000D01*
X173210000Y-115255000D02*
X175430000Y-115255000D01*
X172255000Y-114300000D02*
X173210000Y-115255000D01*
X170665000Y-113985000D02*
X170350000Y-114300000D01*
X170350000Y-106045000D02*
X173835000Y-106045000D01*
X173835000Y-106045000D02*
X174795000Y-105085000D01*
M02*
